{
 "cells": [
  {
   "cell_type": "code",
   "execution_count": 1,
   "metadata": {},
   "outputs": [],
   "source": [
    "import google.generativeai as genai\n",
    "from google.api_core import retry\n",
    "import PIL.Image\n",
    "from IPython.display import display, Image\n",
    "import ipywidgets as widgets\n",
    "\n",
    "GOOGLE_API_KEY = 'AIzaSyBop6_CQMPH8w4fJGgS3josH57YZaNnjWs'\n",
    "genai.configure(api_key=GOOGLE_API_KEY)\n",
    "model = genai.GenerativeModel('models/gemini-pro')"
   ]
  },
  {
   "cell_type": "code",
   "execution_count": null,
   "metadata": {},
   "outputs": [],
   "source": []
  },
  {
   "cell_type": "code",
   "execution_count": 3,
   "metadata": {},
   "outputs": [
    {
     "data": {
      "text/plain": [
       "'There once was a unicorn with rainbow hair,\\nWho frolicked in fields without a care.\\nWith a horn of gold,\\nAnd a story untold,\\nIt left a trail of magic everywhere.'"
      ]
     },
     "execution_count": 3,
     "metadata": {},
     "output_type": "execute_result"
    }
   ],
   "source": [
    "output = model.generate_content(['Write me a irish lymric about unicorns'])\n",
    "output"
   ]
  },
  {
   "cell_type": "code",
   "execution_count": 8,
   "metadata": {},
   "outputs": [],
   "source": [
    "def generate_with_retry(model, prompt):\n",
    "  return model.generate_content(prompt, request_options={'retry':retry.Retry()})"
   ]
  },
  {
   "cell_type": "code",
   "execution_count": 9,
   "metadata": {},
   "outputs": [
    {
     "ename": "TypeError",
     "evalue": "generate_with_retry() missing 1 required positional argument: 'prompt'",
     "output_type": "error",
     "traceback": [
      "\u001b[0;31m---------------------------------------------------------------------------\u001b[0m",
      "\u001b[0;31mTypeError\u001b[0m                                 Traceback (most recent call last)",
      "Cell \u001b[0;32mIn [9], line 1\u001b[0m\n\u001b[0;32m----> 1\u001b[0m \u001b[43mgenerate_with_retry\u001b[49m\u001b[43m(\u001b[49m\u001b[43m[\u001b[49m\u001b[38;5;124;43m\"\u001b[39;49m\u001b[38;5;124;43mWhat did you just say\u001b[39;49m\u001b[38;5;124;43m\"\u001b[39;49m\u001b[43m]\u001b[49m\u001b[43m)\u001b[49m\u001b[38;5;241m.\u001b[39mtext\n",
      "\u001b[0;31mTypeError\u001b[0m: generate_with_retry() missing 1 required positional argument: 'prompt'"
     ]
    }
   ],
   "source": [
    "generate_with_retry(model,['What did you just say']).text"
   ]
  },
  {
   "cell_type": "code",
   "execution_count": null,
   "metadata": {},
   "outputs": [],
   "source": [
    "# contextSeries = []\n",
    "imgExt = '.png'\n",
    "audioExt = '.mp3'\n",
    "def runWithNewData(audiofs=[],screenshotfs=[]):\n",
    "    fileMaps = [[x,int(x.replace(audioExt,''))] for x in audiofs]\n",
    "    fileMaps += [[x,int(x.replace(imgExt,''))] for x in screenshotfs]\n",
    "    fileMaps.sort(lambda x: x[1])\n",
    "    contextSeries2 = list()\n",
    "    for x in fileMaps:\n",
    "        if(imgExt in x[0]): contextSeries2.append(PIL.Image.open(x[0]))\n",
    "        else: contextSeries2.append(genai.upload_file(x[0]))\n",
    "\n",
    "    return generate_with_retry(model,contextSeries2)\n",
    "\n",
    "    \n",
    "\n"
   ]
  },
  {
   "cell_type": "code",
   "execution_count": 1,
   "metadata": {},
   "outputs": [],
   "source": [
    "import sys\n",
    "import os\n",
    "import glob\n",
    "\n",
    "mds = glob.glob('/Users/gp/Documents/A Files/Projects/Coding Projects/Hackathons/2024 MHACKS/-test-tab-capture-extension**/*',recursive=True)\n",
    "exportFile = 'export.txt'\n",
    "out = ''\n",
    "lengths = {}\n",
    "for x in mds:\n",
    "    # if x in filter: continue\n",
    "    with open(x,'r') as f:\n",
    "        out+=f'\\nFile Name:{x}\\n'\n",
    "        try:\n",
    "            lines = '\\n'.join(f.readlines())\n",
    "            out+=lines\n",
    "            lengths[x] = len(lines)\n",
    "        except:\n",
    "            print(x)\n",
    "\n",
    "with open('export.txt','w+') as f:\n",
    "    f.write(out)\n",
    "# with open('export1.txt','w+') as f:\n",
    "#     f.write(out[:int(len(out)/2)])\n",
    "# with open('export2.txt','w+') as f:\n",
    "#     f.write(out[int(len(out)/2):])\n",
    "    \n"
   ]
  },
  {
   "cell_type": "code",
   "execution_count": 10,
   "metadata": {},
   "outputs": [],
   "source": [
    "import imageio\n",
    "import time\n",
    "import os\n",
    "reader = imageio.get_reader('/Users/gp/Documents/A Files/Projects/Coding Projects/Hackathons/2024 MHACKS/media_output/input_1713052467.9633029.mp4')\n",
    "fps = reader.get_meta_data()['fps']  # Get frames per second\n",
    "frames = []"
   ]
  },
  {
   "cell_type": "code",
   "execution_count": 12,
   "metadata": {},
   "outputs": [],
   "source": [
    "for i, frame in enumerate(reader):\n",
    "    if(not i%9==0 ): continue\n",
    "    frame_path = os.path.join('/Users/gp/Documents/A Files/Projects/Coding Projects/Hackathons/2024 MHACKS/media_output', f'frame_{time.time()+i}.png')\n",
    "    imageio.imwrite(frame_path, frame)\n",
    "    frames.append(frame_path)\n",
    "    if i >= 90:  # Limit to 10 frames\n",
    "        break"
   ]
  },
  {
   "cell_type": "code",
   "execution_count": 24,
   "metadata": {},
   "outputs": [
    {
     "data": {
      "text/plain": [
       "<_io.BufferedRandom name='/Users/gp/Documents/A Files/Projects/Coding Projects/Hackathons/2024 MHACKS/media_output/audio_1713053806.99729.mp3'>"
      ]
     },
     "execution_count": 24,
     "metadata": {},
     "output_type": "execute_result"
    }
   ],
   "source": [
    "from pydub import AudioSegment\n",
    "\n",
    "# Assuming the video file has audio, and you want to extract it to an MP3 file\n",
    "audio = AudioSegment.from_file('/Users/gp/Documents/A Files/Projects/Coding Projects/Hackathons/2024 MHACKS/media_output/input_1713054412.993328encoded.mp4', format='mp4')\n",
    "audio_path = os.path.join('/Users/gp/Documents/A Files/Projects/Coding Projects/Hackathons/2024 MHACKS/media_output', f'audio_{time.time()}.mp3')\n",
    "audio.export(audio_path, format='mp3')\n"
   ]
  },
  {
   "cell_type": "code",
   "execution_count": 19,
   "metadata": {},
   "outputs": [
    {
     "name": "stderr",
     "output_type": "stream",
     "text": [
      "ffmpeg version 7.0 Copyright (c) 2000-2024 the FFmpeg developers\n",
      "  built with Apple clang version 15.0.0 (clang-1500.3.9.4)\n",
      "  configuration: --prefix=/opt/homebrew/Cellar/ffmpeg/7.0 --enable-shared --enable-pthreads --enable-version3 --cc=clang --host-cflags= --host-ldflags='-Wl,-ld_classic' --enable-ffplay --enable-gnutls --enable-gpl --enable-libaom --enable-libaribb24 --enable-libbluray --enable-libdav1d --enable-libharfbuzz --enable-libjxl --enable-libmp3lame --enable-libopus --enable-librav1e --enable-librist --enable-librubberband --enable-libsnappy --enable-libsrt --enable-libssh --enable-libsvtav1 --enable-libtesseract --enable-libtheora --enable-libvidstab --enable-libvmaf --enable-libvorbis --enable-libvpx --enable-libwebp --enable-libx264 --enable-libx265 --enable-libxml2 --enable-libxvid --enable-lzma --enable-libfontconfig --enable-libfreetype --enable-frei0r --enable-libass --enable-libopencore-amrnb --enable-libopencore-amrwb --enable-libopenjpeg --enable-libopenvino --enable-libspeex --enable-libsoxr --enable-libzmq --enable-libzimg --disable-libjack --disable-indev=jack --enable-videotoolbox --enable-audiotoolbox --enable-neon\n",
      "  libavutil      59.  8.100 / 59.  8.100\n",
      "  libavcodec     61.  3.100 / 61.  3.100\n",
      "  libavformat    61.  1.100 / 61.  1.100\n",
      "  libavdevice    61.  1.100 / 61.  1.100\n",
      "  libavfilter    10.  1.100 / 10.  1.100\n",
      "  libswscale      8.  1.100 /  8.  1.100\n",
      "  libswresample   5.  1.100 /  5.  1.100\n",
      "  libpostproc    58.  1.100 / 58.  1.100\n",
      "Input #0, matroska,webm, from '/Users/gp/Documents/A Files/Projects/Coding Projects/Hackathons/2024 MHACKS/media_output/input_1713053079.02119.mp4':\n",
      "  Metadata:\n",
      "    encoder         : Chrome\n",
      "  Duration: N/A, start: 0.000000, bitrate: N/A\n",
      "  Stream #0:0(eng): Audio: opus, 48000 Hz, stereo, fltp (default)\n",
      "  Stream #0:1(eng): Video: vp8, yuv420p(tv, bt709, progressive), 3600x2338, SAR 1:1 DAR 1800:1169, 2 tbr, 1k tbn (default)\n",
      "      Metadata:\n",
      "        alpha_mode      : 1\n",
      "Stream mapping:\n",
      "  Stream #0:1 -> #0:0 (vp8 (native) -> h264 (libx264))\n",
      "  Stream #0:0 -> #0:1 (opus (native) -> aac (native))\n",
      "Press [q] to stop, [?] for help\n",
      "[libx264 @ 0x14b70bd40] using SAR=1/1\n",
      "[libx264 @ 0x14b70bd40] using cpu capabilities: ARMv8 NEON\n",
      "[libx264 @ 0x14b70bd40] profile High, level 5.1, 4:2:0, 8-bit\n",
      "[libx264 @ 0x14b70bd40] 264 - core 164 r3108 31e19f9 - H.264/MPEG-4 AVC codec - Copyleft 2003-2023 - http://www.videolan.org/x264.html - options: cabac=1 ref=2 deblock=1:0:0 analyse=0x3:0x113 me=hex subme=6 psy=1 psy_rd=1.00:0.00 mixed_ref=1 me_range=16 chroma_me=1 trellis=1 8x8dct=1 cqm=0 deadzone=21,11 fast_pskip=1 chroma_qp_offset=-2 threads=15 lookahead_threads=2 sliced_threads=0 nr=0 decimate=1 interlaced=0 bluray_compat=0 constrained_intra=0 bframes=3 b_pyramid=2 b_adapt=1 b_bias=0 direct=1 weightb=1 open_gop=0 weightp=1 keyint=250 keyint_min=2 scenecut=40 intra_refresh=0 rc_lookahead=30 rc=crf mbtree=1 crf=23.0 qcomp=0.60 qpmin=0 qpmax=69 qpstep=4 ip_ratio=1.40 aq=1:1.00\n",
      "Output #0, mp4, to '/Users/gp/Documents/A Files/Projects/Coding Projects/Hackathons/2024 MHACKS/media_output/input_1713053079.02119-fixed2.mp4':\n",
      "  Metadata:\n",
      "    encoder         : Lavf61.1.100\n",
      "  Stream #0:0(eng): Video: h264 (avc1 / 0x31637661), yuv420p(tv, bt470bg/bt709/bt709, progressive), 3600x2338 [SAR 1:1 DAR 1800:1169], q=2-31, 2 fps, 16384 tbn (default)\n",
      "      Metadata:\n",
      "        alpha_mode      : 1\n",
      "        encoder         : Lavc61.3.100 libx264\n",
      "      Side data:\n",
      "        cpb: bitrate max/min/avg: 0/0/0 buffer size: 0 vbv_delay: N/A\n",
      "  Stream #0:1(eng): Audio: aac (LC) (mp4a / 0x6134706D), 48000 Hz, stereo, fltp, 192 kb/s (default)\n",
      "      Metadata:\n",
      "        encoder         : Lavc61.3.100 aac\n"
     ]
    },
    {
     "name": "stdout",
     "output_type": "stream",
     "text": [
      "Video transcoded successfully.\n"
     ]
    },
    {
     "name": "stderr",
     "output_type": "stream",
     "text": [
      "[out#0/mp4 @ 0x14b716900] video:159KiB audio:1KiB subtitle:0KiB other streams:0KiB global headers:0KiB muxing overhead: 2.438309%\n",
      "frame=   10 fps=0.0 q=-1.0 Lsize=     164KiB time=00:00:04.00 bitrate= 335.5kbits/s dup=2 drop=1 speed=16.6x    \n",
      "[libx264 @ 0x14b70bd40] frame I:1     Avg QP: 2.30  size:110753\n",
      "[libx264 @ 0x14b70bd40] frame P:3     Avg QP:11.69  size: 12463\n",
      "[libx264 @ 0x14b70bd40] frame B:6     Avg QP:13.87  size:  2251\n",
      "[libx264 @ 0x14b70bd40] consecutive B-frames: 10.0% 20.0% 30.0% 40.0%\n",
      "[libx264 @ 0x14b70bd40] mb I  I16..4: 90.7%  3.7%  5.6%\n",
      "[libx264 @ 0x14b70bd40] mb P  I16..4:  1.3%  0.4%  0.1%  P16..4:  3.5%  0.4%  0.4%  0.0%  0.0%    skip:94.0%\n",
      "[libx264 @ 0x14b70bd40] mb B  I16..4:  0.1%  0.0%  0.0%  B16..8:  1.5%  0.1%  0.0%  direct: 0.8%  skip:97.6%  L0:32.8% L1:65.8% BI: 1.3%\n",
      "[libx264 @ 0x14b70bd40] 8x8 transform intra:4.6% inter:21.9%\n",
      "[libx264 @ 0x14b70bd40] coded y,uvDC,uvAC intra: 6.6% 5.4% 5.2% inter: 0.6% 1.0% 0.5%\n",
      "[libx264 @ 0x14b70bd40] i16 v,h,dc,p: 92%  6%  2%  0%\n",
      "[libx264 @ 0x14b70bd40] i8 v,h,dc,ddl,ddr,vr,hd,vl,hu: 33% 18% 41%  1%  1%  2%  1%  2%  1%\n",
      "[libx264 @ 0x14b70bd40] i4 v,h,dc,ddl,ddr,vr,hd,vl,hu: 31% 22% 23%  3%  4%  4%  4%  4%  5%\n",
      "[libx264 @ 0x14b70bd40] i8c dc,h,v,p: 93%  5%  2%  0%\n",
      "[libx264 @ 0x14b70bd40] Weighted P-Frames: Y:0.0% UV:0.0%\n",
      "[libx264 @ 0x14b70bd40] ref P L0: 92.2%  7.8%\n",
      "[libx264 @ 0x14b70bd40] ref B L0: 92.1%  7.9%\n",
      "[libx264 @ 0x14b70bd40] kb/s:258.64\n",
      "[aac @ 0x14b725990] Qavg: 65536.000\n"
     ]
    }
   ],
   "source": [
    "import subprocess\n",
    "\n",
    "def transcode_video(input_path, output_path):\n",
    "    command = [\n",
    "        'ffmpeg', \n",
    "        '-i', input_path, \n",
    "        '-c:v', 'libx264', '-crf', '23', '-preset', 'fast', \n",
    "        '-c:a', 'aac', '-b:a', '192k', \n",
    "        output_path\n",
    "    ]\n",
    "    try:\n",
    "        subprocess.run(command, check=True)\n",
    "        print('Video transcoded successfully.')\n",
    "    except subprocess.CalledProcessError as e:\n",
    "        print(f'An error occurred during transcoding: {e}')\n",
    "\n",
    "input_video_path = '/Users/gp/Documents/A Files/Projects/Coding Projects/Hackathons/2024 MHACKS/media_output/input_1713053079.02119.mp4'\n",
    "output_video_path = '/Users/gp/Documents/A Files/Projects/Coding Projects/Hackathons/2024 MHACKS/media_output/input_1713053079.02119-fixed2.mp4'\n",
    "transcode_video(input_video_path, output_video_path)"
   ]
  },
  {
   "cell_type": "code",
   "execution_count": 22,
   "metadata": {},
   "outputs": [
    {
     "name": "stderr",
     "output_type": "stream",
     "text": [
      "IMAGEIO FFMPEG_WRITER WARNING: input image is not divisible by macro_block_size=16, resizing from (3600, 2338) to (3600, 2352) to ensure video compatibility with most codecs and players. To prevent resizing, make your input image divisible by the macro_block_size or set the macro_block_size to 1 (risking incompatibility).\n"
     ]
    }
   ],
   "source": [
    "import imageio\n",
    "\n",
    "reader = imageio.get_reader('/Users/gp/Documents/A Files/Projects/Coding Projects/Hackathons/2024 MHACKS/media_output/input_1713053079.02119.mp4')\n",
    "fps = reader.get_meta_data()['fps']\n",
    "\n",
    "writer = imageio.get_writer('/Users/gp/Documents/A Files/Projects/Coding Projects/Hackathons/2024 MHACKS/media_output/input_1713053079.02119-2.mp4', fps=fps, codec='libx264')\n",
    "\n",
    "for frame in reader:\n",
    "    writer.append_data(frame)\n",
    "\n",
    "writer.close()"
   ]
  },
  {
   "cell_type": "code",
   "execution_count": 20,
   "metadata": {},
   "outputs": [
    {
     "name": "stdout",
     "output_type": "stream",
     "text": [
      "Video repaired successfully.\n"
     ]
    },
    {
     "name": "stderr",
     "output_type": "stream",
     "text": [
      "ffmpeg version 7.0 Copyright (c) 2000-2024 the FFmpeg developers\n",
      "  built with Apple clang version 15.0.0 (clang-1500.3.9.4)\n",
      "  configuration: --prefix=/opt/homebrew/Cellar/ffmpeg/7.0 --enable-shared --enable-pthreads --enable-version3 --cc=clang --host-cflags= --host-ldflags='-Wl,-ld_classic' --enable-ffplay --enable-gnutls --enable-gpl --enable-libaom --enable-libaribb24 --enable-libbluray --enable-libdav1d --enable-libharfbuzz --enable-libjxl --enable-libmp3lame --enable-libopus --enable-librav1e --enable-librist --enable-librubberband --enable-libsnappy --enable-libsrt --enable-libssh --enable-libsvtav1 --enable-libtesseract --enable-libtheora --enable-libvidstab --enable-libvmaf --enable-libvorbis --enable-libvpx --enable-libwebp --enable-libx264 --enable-libx265 --enable-libxml2 --enable-libxvid --enable-lzma --enable-libfontconfig --enable-libfreetype --enable-frei0r --enable-libass --enable-libopencore-amrnb --enable-libopencore-amrwb --enable-libopenjpeg --enable-libopenvino --enable-libspeex --enable-libsoxr --enable-libzmq --enable-libzimg --disable-libjack --disable-indev=jack --enable-videotoolbox --enable-audiotoolbox --enable-neon\n",
      "  libavutil      59.  8.100 / 59.  8.100\n",
      "  libavcodec     61.  3.100 / 61.  3.100\n",
      "  libavformat    61.  1.100 / 61.  1.100\n",
      "  libavdevice    61.  1.100 / 61.  1.100\n",
      "  libavfilter    10.  1.100 / 10.  1.100\n",
      "  libswscale      8.  1.100 /  8.  1.100\n",
      "  libswresample   5.  1.100 /  5.  1.100\n",
      "  libpostproc    58.  1.100 / 58.  1.100\n",
      "Input #0, mov,mp4,m4a,3gp,3g2,mj2, from '/Users/gp/Documents/A Files/Projects/Coding Projects/Hackathons/2024 MHACKS/media_output/input_1713053079.02119-fixed2.mp4':\n",
      "  Metadata:\n",
      "    major_brand     : isom\n",
      "    minor_version   : 512\n",
      "    compatible_brands: isomiso2avc1mp41\n",
      "    encoder         : Lavf61.1.100\n",
      "  Duration: 00:00:05.00, start: 0.000000, bitrate: 268 kb/s\n",
      "  Stream #0:0[0x1](eng): Video: h264 (High) (avc1 / 0x31637661), yuv420p(tv, bt470bg/bt709/bt709, progressive), 3600x2338 [SAR 1:1 DAR 1800:1169], 259 kb/s, 2 fps, 2 tbr, 16384 tbn (default)\n",
      "      Metadata:\n",
      "        handler_name    : VideoHandler\n",
      "        vendor_id       : [0][0][0][0]\n",
      "        encoder         : Lavc61.3.100 libx264\n",
      "  Stream #0:1[0x2](eng): Audio: aac (LC) (mp4a / 0x6134706D), 48000 Hz, stereo, fltp, 2 kb/s (default)\n",
      "      Metadata:\n",
      "        handler_name    : SoundHandler\n",
      "        vendor_id       : [0][0][0][0]\n",
      "Stream mapping:\n",
      "  Stream #0:0 -> #0:0 (copy)\n",
      "  Stream #0:1 -> #0:1 (copy)\n",
      "Output #0, mp4, to '/Users/gp/Documents/A Files/Projects/Coding Projects/Hackathons/2024 MHACKS/media_output/input_1713053079.02119-fixed3.mp4':\n",
      "  Metadata:\n",
      "    major_brand     : isom\n",
      "    minor_version   : 512\n",
      "    compatible_brands: isomiso2avc1mp41\n",
      "    encoder         : Lavf61.1.100\n",
      "  Stream #0:0(eng): Video: h264 (High) (avc1 / 0x31637661), yuv420p(tv, bt470bg/bt709/bt709, progressive), 3600x2338 [SAR 1:1 DAR 1800:1169], q=2-31, 259 kb/s, 2 fps, 2 tbr, 16384 tbn (default)\n",
      "      Metadata:\n",
      "        handler_name    : VideoHandler\n",
      "        vendor_id       : [0][0][0][0]\n",
      "        encoder         : Lavc61.3.100 libx264\n",
      "  Stream #0:1(eng): Audio: aac (LC) (mp4a / 0x6134706D), 48000 Hz, stereo, fltp, 2 kb/s (default)\n",
      "      Metadata:\n",
      "        handler_name    : SoundHandler\n",
      "        vendor_id       : [0][0][0][0]\n",
      "Press [q] to stop, [?] for help\n",
      "[mp4 @ 0x11fa10f60] Starting second pass: moving the moov atom to the beginning of the file\n",
      "[out#0/mp4 @ 0x11fa0f890] video:159KiB audio:1KiB subtitle:0KiB other streams:0KiB global headers:0KiB muxing overhead: 2.437684%\n",
      "size=     164KiB time=00:00:04.00 bitrate= 335.5kbits/s speed=4.45e+03x    \n"
     ]
    }
   ],
   "source": [
    "import subprocess\n",
    "\n",
    "def repair_video(input_path, output_path):\n",
    "    command = [\n",
    "        'ffmpeg', \n",
    "        '-i', input_path, \n",
    "        '-codec', 'copy', \n",
    "        '-movflags', 'faststart', \n",
    "        output_path\n",
    "    ]\n",
    "    try:\n",
    "        subprocess.run(command, check=True)\n",
    "        print('Video repaired successfully.')\n",
    "    except subprocess.CalledProcessError as e:\n",
    "        print(f'An error occurred: {e}')\n",
    "\n",
    "# Example usage:\n",
    "input_video_path = '/Users/gp/Documents/A Files/Projects/Coding Projects/Hackathons/2024 MHACKS/media_output/input_1713053079.02119-fixed2.mp4'\n",
    "output_video_path = '/Users/gp/Documents/A Files/Projects/Coding Projects/Hackathons/2024 MHACKS/media_output/input_1713053079.02119-fixed3.mp4'\n",
    "repair_video(input_video_path, output_video_path)"
   ]
  },
  {
   "cell_type": "code",
   "execution_count": 2,
   "metadata": {},
   "outputs": [
    {
     "data": {
      "text/plain": [
       "{'streams': [{'index': 0,\n",
       "   'codec_name': 'opus',\n",
       "   'codec_long_name': 'Opus (Opus Interactive Audio Codec)',\n",
       "   'codec_type': 'audio',\n",
       "   'codec_tag_string': '[0][0][0][0]',\n",
       "   'codec_tag': '0x0000',\n",
       "   'sample_fmt': 'fltp',\n",
       "   'sample_rate': '48000',\n",
       "   'channels': 2,\n",
       "   'channel_layout': 'stereo',\n",
       "   'bits_per_sample': 0,\n",
       "   'initial_padding': 0,\n",
       "   'r_frame_rate': '0/0',\n",
       "   'avg_frame_rate': '0/0',\n",
       "   'time_base': '1/1000',\n",
       "   'start_pts': 0,\n",
       "   'start_time': '0.000000',\n",
       "   'extradata_size': 19,\n",
       "   'disposition': {'default': 1,\n",
       "    'dub': 0,\n",
       "    'original': 0,\n",
       "    'comment': 0,\n",
       "    'lyrics': 0,\n",
       "    'karaoke': 0,\n",
       "    'forced': 0,\n",
       "    'hearing_impaired': 0,\n",
       "    'visual_impaired': 0,\n",
       "    'clean_effects': 0,\n",
       "    'attached_pic': 0,\n",
       "    'timed_thumbnails': 0,\n",
       "    'non_diegetic': 0,\n",
       "    'captions': 0,\n",
       "    'descriptions': 0,\n",
       "    'metadata': 0,\n",
       "    'dependent': 0,\n",
       "    'still_image': 0},\n",
       "   'tags': {'language': 'eng'}},\n",
       "  {'index': 1,\n",
       "   'codec_name': 'vp8',\n",
       "   'codec_long_name': 'On2 VP8',\n",
       "   'profile': '0',\n",
       "   'codec_type': 'video',\n",
       "   'codec_tag_string': '[0][0][0][0]',\n",
       "   'codec_tag': '0x0000',\n",
       "   'width': 3600,\n",
       "   'height': 2338,\n",
       "   'coded_width': 3600,\n",
       "   'coded_height': 2338,\n",
       "   'closed_captions': 0,\n",
       "   'film_grain': 0,\n",
       "   'has_b_frames': 0,\n",
       "   'sample_aspect_ratio': '1:1',\n",
       "   'display_aspect_ratio': '1800:1169',\n",
       "   'pix_fmt': 'yuv420p',\n",
       "   'level': -99,\n",
       "   'color_range': 'tv',\n",
       "   'color_space': 'bt709',\n",
       "   'color_transfer': 'bt709',\n",
       "   'color_primaries': 'bt709',\n",
       "   'field_order': 'progressive',\n",
       "   'refs': 1,\n",
       "   'r_frame_rate': '1000/1',\n",
       "   'avg_frame_rate': '0/0',\n",
       "   'time_base': '1/1000',\n",
       "   'start_pts': 119,\n",
       "   'start_time': '0.119000',\n",
       "   'disposition': {'default': 1,\n",
       "    'dub': 0,\n",
       "    'original': 0,\n",
       "    'comment': 0,\n",
       "    'lyrics': 0,\n",
       "    'karaoke': 0,\n",
       "    'forced': 0,\n",
       "    'hearing_impaired': 0,\n",
       "    'visual_impaired': 0,\n",
       "    'clean_effects': 0,\n",
       "    'attached_pic': 0,\n",
       "    'timed_thumbnails': 0,\n",
       "    'non_diegetic': 0,\n",
       "    'captions': 0,\n",
       "    'descriptions': 0,\n",
       "    'metadata': 0,\n",
       "    'dependent': 0,\n",
       "    'still_image': 0},\n",
       "   'tags': {'language': 'eng', 'alpha_mode': '1'}}],\n",
       " 'format': {'filename': '/Users/gp/Documents/A Files/Projects/Coding Projects/Hackathons/2024 MHACKS/media_output/input_1713060892.2576141.mp4',\n",
       "  'nb_streams': 2,\n",
       "  'nb_programs': 0,\n",
       "  'nb_stream_groups': 0,\n",
       "  'format_name': 'matroska,webm',\n",
       "  'format_long_name': 'Matroska / WebM',\n",
       "  'start_time': '0.000000',\n",
       "  'size': '1685928',\n",
       "  'probe_score': 100,\n",
       "  'tags': {'encoder': 'Chrome'}}}"
      ]
     },
     "execution_count": 2,
     "metadata": {},
     "output_type": "execute_result"
    }
   ],
   "source": [
    "import json\n",
    "import subprocess\n",
    "\n",
    "def list_ffmpeg_streams(file_path):\n",
    "    # Command to probe the video file using ffprobe (part of FFmpeg)\n",
    "    command = [\n",
    "        'ffprobe', \n",
    "        '-v', 'error', \n",
    "        '-print_format', 'json', \n",
    "        '-show_format', \n",
    "        '-show_streams', \n",
    "        file_path\n",
    "    ]\n",
    "\n",
    "    # Running the command with subprocess\n",
    "    result = subprocess.run(command, stdout=subprocess.PIPE, stderr=subprocess.PIPE, text=True)\n",
    "    \n",
    "    # Convert the output to JSON\n",
    "    try:\n",
    "        streams = json.loads(result.stdout)\n",
    "        return streams\n",
    "    except json.JSONDecodeError:\n",
    "        raise Exception('Failed to parse output from ffprobe.')\n",
    "    \n",
    "list_ffmpeg_streams('/Users/gp/Documents/A Files/Projects/Coding Projects/Hackathons/2024 MHACKS/media_output/input_1713061249.307628.mp4')"
   ]
  },
  {
   "cell_type": "code",
   "execution_count": null,
   "metadata": {},
   "outputs": [],
   "source": [
    "emotions = ['joy', 'sadness', 'anger', 'fear', 'disgust', 'surprise']\n",
    "fullstr = ''\n",
    "output = {x:.5 for x in emotions}\n",
    "for x in emotions:\n",
    "    index = fullstr.lower().find(x)\n",
    "    if(index!=-1): \n",
    "        try: output[x] = float(fullstr[index+3:index+6])\n",
    "        except: pass"
   ]
  },
  {
   "cell_type": "code",
   "execution_count": null,
   "metadata": {},
   "outputs": [],
   "source": []
  }
 ],
 "metadata": {
  "kernelspec": {
   "display_name": "Python 3",
   "language": "python",
   "name": "python3"
  },
  "language_info": {
   "codemirror_mode": {
    "name": "ipython",
    "version": 3
   },
   "file_extension": ".py",
   "mimetype": "text/x-python",
   "name": "python",
   "nbconvert_exporter": "python",
   "pygments_lexer": "ipython3",
   "version": "3.9.18"
  }
 },
 "nbformat": 4,
 "nbformat_minor": 2
}
